<?xml version="1.0" encoding="UTF-8" standalone="no"?>
<!-- Created with Inkscape (http://www.inkscape.org/) -->

<svg
   xmlns:dc="http://purl.org/dc/elements/1.1/"
   xmlns:cc="http://creativecommons.org/ns#"
   xmlns:rdf="http://www.w3.org/1999/02/22-rdf-syntax-ns#"
   xmlns:svg="http://www.w3.org/2000/svg"
   xmlns="http://www.w3.org/2000/svg"
   xmlns:sodipodi="http://sodipodi.sourceforge.net/DTD/sodipodi-0.dtd"
   xmlns:inkscape="http://www.inkscape.org/namespaces/inkscape"
   width="315.64453"
   height="67.650002"
   id="svg3072"
   version="1.1"
   inkscape:version="0.92.4 (5da689c313, 2019-01-14)"
   sodipodi:docname="hackeddesign_path.svg">
  <defs
     id="defs3074" />
  <sodipodi:namedview
     id="base"
     pagecolor="#ffffff"
     bordercolor="#666666"
     borderopacity="1.0"
     inkscape:pageopacity="0.0"
     inkscape:pageshadow="2"
     inkscape:zoom="2.32"
     inkscape:cx="86.32049"
     inkscape:cy="71.265206"
     inkscape:current-layer="layer1"
     inkscape:document-units="px"
     showgrid="false"
     inkscape:window-width="3000"
     inkscape:window-height="1875"
     inkscape:window-x="-13"
     inkscape:window-y="-13"
     inkscape:window-maximized="1"
     fit-margin-top="10"
     fit-margin-left="10"
     fit-margin-right="10"
     fit-margin-bottom="10" />
  <metadata
     id="metadata3077">
    <rdf:RDF>
      <cc:Work
         rdf:about="">
        <dc:format>image/svg+xml</dc:format>
        <dc:type
           rdf:resource="http://purl.org/dc/dcmitype/StillImage" />
        <dc:title></dc:title>
      </cc:Work>
    </rdf:RDF>
  </metadata>
  <g
     id="layer1"
     inkscape:label="logo"
     inkscape:groupmode="layer"
     transform="translate(-154.54636,-191.89108)">
    <g
       aria-label="hacked.design"
       style="font-style:normal;font-variant:normal;font-weight:300;font-stretch:normal;line-height:0%;font-family:Santana;-inkscape-font-specification:'Santana Light';letter-spacing:0px;word-spacing:0px;fill:#000000;fill-opacity:1;stroke:none"
       id="text3096">
      <path
         d="m 187.04636,238.29108 q -0.05,-0.1 -0.4,-0.85 -0.3,-0.75 -0.7,-1.95 -0.4,-1.2 -0.4,-2.15 v -8.75 q 0,-2.45 -0.55,-4.2 -0.5,-1.8 -1.35,-3 -0.85,-1.25 -1.9,-1.95 -1.05,-0.75 -2.1,-1.1 -1.05,-0.4 -2,-0.5 -0.9,-0.15 -1.45,-0.15 -1.45,0 -2.85,0.45 -1.4,0.4 -2.55,1.1 -1.25,0.7 -2.2,1.75 -0.95,1 -1.5,2.15 h -0.1 v -16.65 h -2.45 v 35.8 h 2.45 v -14.25 q 0,-1.55 0.4,-2.55 0.45,-1.1 1.2,-2.1 0.8,-1.05 1.85,-1.8 1.1,-0.8 2.35,-1.25 1.3,-0.5 2.75,-0.5 1.9,0 3.25,0.65 1.4,0.6 2.3,1.65 1.05,1.25 1.5,2.95 0.5,1.7 0.5,3.6 v 8.65 q 0,1.2 0.2,2.3 0.25,1.05 0.55,1.9 0.3,0.8 0.5,1.25 0.25,0.5 0.25,0.5 z"
         style="fill:#0062a0;fill-opacity:1"
         id="path4528" />
      <path
         d="m 211.43621,238.29108 q -0.25,-1.45 -0.6,-2.9 -0.3,-1.45 -0.3,-2.9 v -8.7 q 0,-1.4 -0.3,-3.15 -0.25,-1.8 -1.2,-3.3 -0.9,-1.55 -2.7,-2.6 -1.8,-1.05 -4.85,-1.05 -1,0 -2.05,0.15 0,0 0.05,0.45 0.1,0.4 0.25,1.55 0.4,-0.05 0.75,-0.05 0.4,-0.05 0.8,-0.05 2.4,0 3.75,0.85 1.35,0.85 2,2.05 0.7,1.15 0.85,2.4 0.2,1.2 0.2,1.85 v 0.55 q -8.4,-0.1 -12.35,2.35 -3.9,2.4 -3.9,6.5 0,1.35 0.6,2.75 0.65,1.4 2.05,2.4 0.7,0.5 1.55,0.85 0.85,0.35 1.9,0.5 h 0.1 q 0.35,0.05 0.7,0.05 0.35,0.05 0.75,0.05 1.65,0 3.05,-0.4 1.4,-0.4 2.5,-1.05 1.1,-0.65 1.9,-1.4 0.8,-0.75 1.25,-1.45 h 0.1 l 0.9,4.2 z m -3.35,-7.7 q 0,0.65 -0.3,1.4 -0.35,0.8 -1,1.7 -0.65,0.85 -1.65,1.55 -1,0.7 -2.35,1.2 -1.35,0.45 -3.1,0.45 -2.1,0 -3.7,-1.25 -1.55,-1.25 -1.55,-3.8 0,-2.1 1.25,-3.35 1.25,-1.3 3.2,-1.95 1.95,-0.7 4.35,-0.9 2.45,-0.2 4.85,-0.15 z"
         style="fill:#0062a0;fill-opacity:1"
         id="path4530" />
      <path
         d="m 237.64089,215.39108 q -0.75,-0.55 -2.7,-1.1 -1.9,-0.6 -4.6,-0.6 -2.9,0 -5.4,0.9 -2.5,0.9 -4.35,2.6 -1.8,1.65 -2.85,4.05 -1.05,2.4 -1.05,5.4 0,2.6 0.9,4.85 0.9,2.25 2.55,3.9 1.7,1.65 4.05,2.6 2.35,0.9 5.2,0.9 3.1,0 5.15,-0.65 2.1,-0.7 2.9,-1.1 l -0.7,-1.95 q -1.05,0.45 -2.75,1.05 -1.65,0.55 -4.25,0.55 -2.3,0 -4.25,-0.75 -1.9,-0.75 -3.35,-2.1 -1.4,-1.4 -2.2,-3.3 -0.8,-1.95 -0.8,-4.3 0,-2.2 0.7,-4.1 0.75,-1.95 2.1,-3.35 1.4,-1.45 3.45,-2.25 2.05,-0.85 4.75,-0.85 2.35,0 3.95,0.5 1.6,0.5 2.65,1.1 z"
         style="fill:#0062a0;fill-opacity:1"
         id="path4532" />
      <path
         d="m 263.04324,238.29108 -12.25,-14.1 10.7,-9.9 h -3.1 l -9.35,8.8 q -0.65,0.6 -1.4,1.4 -0.75,0.8 -1.25,1.35 h -0.1 v -23.35 h -2.45 v 35.8 h 2.45 v -10.05 l 2.75,-2.65 11.45,13.7 z"
         style="fill:#0062a0;fill-opacity:1"
         id="path4534" />
      <path
         d="m 286.99246,224.79108 q 0,-1.2 -0.4,-3.05 -0.35,-1.9 -1.5,-3.7 -1.1,-1.8 -3.15,-3.05 -2.05,-1.3 -5.4,-1.3 -2.55,0 -4.75,0.95 -2.2,0.9 -3.8,2.6 -1.6,1.7 -2.55,4.15 -0.9,2.45 -0.9,5.5 0,2.6 0.85,4.8 0.9,2.2 2.5,3.8 1.6,1.6 3.85,2.5 2.3,0.9 5.1,0.9 0.9,0 1.7,-0.05 0.85,-0.05 1.55,-0.15 l -0.2,-2.05 q -1.2,0.15 -2.8,0.15 -2.15,0 -4,-0.65 -1.85,-0.65 -3.25,-1.95 -1.35,-1.35 -2.15,-3.3 -0.75,-1.95 -0.75,-4.6 h 19.95 q 0.1,-0.3 0.1,-0.6 0,-0.35 0,-0.9 z m -2.55,-0.45 h -17.35 q 0.2,-1.35 0.8,-2.85 0.6,-1.55 1.65,-2.8 1.1,-1.3 2.75,-2.15 1.65,-0.85 3.95,-0.85 2.7,0 4.3,1 1.65,1 2.5,2.4 0.9,1.4 1.15,2.85 0.25,1.45 0.25,2.4 z"
         style="fill:#0062a0;fill-opacity:1"
         id="path4536" />
      <path
         d="m 315.84792,225.64108 q 0,-2.7 -0.6,-5.1 -0.55,-2.4 -1.65,-4.6 -0.85,-1.75 -2.05,-3.35 -1.15,-1.6 -2.6,-3.05 -0.65,-0.7 -1.35,-1.3 -0.7,-0.6 -1.45,-1.15 l -1.75,-1.3 q -1.6,-1.2 -3.5,-2.15 -1.9,-1 -3.8,-1.75 l -1,2 q 1.65,0.6 3.25,1.4 1.65,0.75 2.85,1.6 l 1.85,1.25 q 2.85,1.9 4.75,4.2 1.9,2.25 3.3,4.7 l -0.1,0.15 q -2.15,-2.15 -4.2,-2.8 -2.05,-0.7 -4.2,-0.7 -2.25,0 -4.45,0.9 -2.15,0.9 -3.9,2.6 -1.7,1.65 -2.75,4.05 -1.05,2.4 -1.05,5.4 0,2.65 0.85,4.9 0.9,2.2 2.45,3.85 1.6,1.65 3.8,2.6 2.25,0.9 4.9,0.9 2.25,0 4.45,-0.75 2.2,-0.75 3.95,-2.35 1.8,-1.6 2.9,-4.1 1.1,-2.5 1.1,-6.05 z m -2.55,0.35 q 0,2.65 -0.8,4.7 -0.75,2.05 -2.1,3.45 -1.35,1.35 -3.15,2.05 -1.8,0.7 -3.9,0.7 -1.8,0 -3.5,-0.7 -1.7,-0.7 -3.05,-2 -1.3,-1.3 -2.15,-3.2 -0.8,-1.95 -0.8,-4.45 0,-1.85 0.55,-3.75 0.6,-1.95 1.8,-3.5 1.2,-1.6 3.05,-2.6 1.85,-1 4.35,-1 2.6,0 4.35,0.9 1.75,0.9 2.9,2 1.35,1.3 1.9,2.95 0.55,1.65 0.55,4.45 z"
         style="fill:#0062a0;fill-opacity:1"
         id="path4538" />
      <path
         d="m 323.75417,236.59108 q 0,-1 -0.6,-1.65 -0.55,-0.7 -1.5,-0.7 -0.95,0 -1.55,0.7 -0.6,0.65 -0.6,1.65 -0.05,0.9 0.55,1.6 0.6,0.7 1.55,0.7 1,0 1.55,-0.7 0.6,-0.7 0.6,-1.6 z"
         style="font-size:50px;line-height:1.25"
         id="path4540" />
      <path
         d="m 353.54324,225.64108 q 0,-2.7 -0.6,-5.1 -0.55,-2.4 -1.65,-4.6 -0.85,-1.75 -2.05,-3.35 -1.15,-1.6 -2.6,-3.05 -0.65,-0.7 -1.35,-1.3 -0.7,-0.6 -1.45,-1.15 l -1.75,-1.3 q -1.6,-1.2 -3.5,-2.15 -1.9,-1 -3.8,-1.75 l -1,2 q 1.65,0.6 3.25,1.4 1.65,0.75 2.85,1.6 l 1.85,1.25 q 2.85,1.9 4.75,4.2 1.9,2.25 3.3,4.7 l -0.1,0.15 q -2.15,-2.15 -4.2,-2.8 -2.05,-0.7 -4.2,-0.7 -2.25,0 -4.45,0.9 -2.15,0.9 -3.9,2.6 -1.7,1.65 -2.75,4.05 -1.05,2.4 -1.05,5.4 0,2.65 0.85,4.9 0.9,2.2 2.45,3.85 1.6,1.65 3.8,2.6 2.25,0.9 4.9,0.9 2.25,0 4.45,-0.75 2.2,-0.75 3.95,-2.35 1.8,-1.6 2.9,-4.1 1.1,-2.5 1.1,-6.05 z m -2.55,0.35 q 0,2.65 -0.8,4.7 -0.75,2.05 -2.1,3.45 -1.35,1.35 -3.15,2.05 -1.8,0.7 -3.9,0.7 -1.8,0 -3.5,-0.7 -1.7,-0.7 -3.05,-2 -1.3,-1.3 -2.15,-3.2 -0.8,-1.95 -0.8,-4.45 0,-1.85 0.55,-3.75 0.6,-1.95 1.8,-3.5 1.2,-1.6 3.05,-2.6 1.85,-1 4.35,-1 2.6,0 4.35,0.9 1.75,0.9 2.9,2 1.35,1.3 1.9,2.95 0.55,1.65 0.55,4.45 z"
         style="fill:#ffb400;fill-opacity:1"
         id="path4542" />
      <path
         d="m 380.44949,224.79108 q 0,-1.2 -0.4,-3.05 -0.35,-1.9 -1.5,-3.7 -1.1,-1.8 -3.15,-3.05 -2.05,-1.3 -5.4,-1.3 -2.55,0 -4.75,0.95 -2.2,0.9 -3.8,2.6 -1.6,1.7 -2.55,4.15 -0.9,2.45 -0.9,5.5 0,2.6 0.85,4.8 0.9,2.2 2.5,3.8 1.6,1.6 3.85,2.5 2.3,0.9 5.1,0.9 0.9,0 1.7,-0.05 0.85,-0.05 1.55,-0.15 l -0.2,-2.05 q -1.2,0.15 -2.8,0.15 -2.15,0 -4,-0.65 -1.85,-0.65 -3.25,-1.95 -1.35,-1.35 -2.15,-3.3 -0.75,-1.95 -0.75,-4.6 h 19.95 q 0.1,-0.3 0.1,-0.6 0,-0.35 0,-0.9 z m -2.55,-0.45 h -17.35 q 0.2,-1.35 0.8,-2.85 0.6,-1.55 1.65,-2.8 1.1,-1.3 2.75,-2.15 1.65,-0.85 3.95,-0.85 2.7,0 4.3,1 1.65,1 2.5,2.4 0.9,1.4 1.15,2.85 0.25,1.45 0.25,2.4 z"
         style="fill:#ffb400;fill-opacity:1"
         id="path4544" />
      <path
         d="m 400.55496,231.99108 q 0,-2.7 -1.65,-4.25 -1.6,-1.6 -4.9,-2.75 -1.35,-0.45 -2.4,-0.9 -1,-0.45 -1.75,-1 -0.7,-0.55 -1.1,-1.3 -0.35,-0.75 -0.35,-1.75 0,-1.75 1.25,-3 1.3,-1.3 3.8,-1.3 2.1,0 3.4,0.6 1.3,0.55 1.9,0.95 l 0.95,-2 q -1.05,-0.7 -2.55,-1.15 -1.5,-0.45 -3.25,-0.45 -1.95,0 -3.45,0.55 -1.45,0.55 -2.45,1.5 -1,0.95 -1.5,2.15 -0.5,1.2 -0.5,2.45 0,4.4 6.5,6.5 2.85,0.9 4.25,2.1 1.4,1.15 1.4,3.25 0,1.85 -1.45,3.25 -1.45,1.4 -4.6,1.4 -1.8,0 -3.35,-0.55 -1.55,-0.55 -2.65,-1.25 l -0.9,2.1 q 1.35,0.8 3.05,1.25 1.75,0.5 3.65,0.5 2.05,0 3.65,-0.55 1.6,-0.5 2.7,-1.4 1.15,-0.95 1.7,-2.2 0.6,-1.3 0.6,-2.75 z"
         style="fill:#ffb400;fill-opacity:1"
         id="path4546" />
      <path
         d="m 410.76511,206.69108 q 0,-0.85 -0.6,-1.5 -0.55,-0.65 -1.4,-0.65 -0.85,0 -1.45,0.65 -0.6,0.65 -0.6,1.5 0,0.85 0.55,1.5 0.55,0.65 1.45,0.65 0.95,0 1.5,-0.65 0.55,-0.65 0.55,-1.5 z m -0.8,31.6 v -24 h -2.45 v 24 z"
         style="fill:#ffb400;fill-opacity:1"
         id="path4548" />
      <path
         d="m 432.19558,216.24108 v -2.15 l -9,0.1 h -0.1 q -1.55,0 -3.05,0.6 -1.5,0.55 -2.7,1.65 -1.15,1.1 -1.9,2.7 -0.7,1.55 -0.7,3.5 0,1.85 0.7,3.4 0.7,1.5 1.95,2.65 -0.05,0.2 -0.2,0.85 -0.15,0.6 -0.3,1.35 -0.1,0.75 -0.2,1.5 -0.05,0.75 0.05,1.1 0.25,1.25 0.7,1.85 0.5,0.6 1.25,0.9 0.8,0.3 1.9,0.55 1.15,0.2 2.8,0.7 2.85,0.9 4.25,2.05 1.4,1.2 1.4,3.3 0,1.85 -1.45,3.25 -1.45,1.4 -4.6,1.4 -1.8,0 -3.35,-0.55 -1.55,-0.55 -2.65,-1.25 l -0.9,2.1 q 1.35,0.8 3.05,1.25 1.75,0.5 3.65,0.5 2.05,0 3.65,-0.55 1.6,-0.5 2.7,-1.45 1.15,-0.9 1.7,-2.2 0.6,-1.25 0.6,-2.7 0,-2.7 -1.65,-4.3 -1.6,-1.55 -4.9,-2.7 -1.35,-0.45 -2.45,-0.65 -1.1,-0.25 -1.9,-0.5 -0.75,-0.3 -1.2,-0.8 -0.45,-0.5 -0.45,-1.5 0,-0.05 0.05,-0.5 0.1,-0.45 0.15,-1.05 0.1,-0.6 0.05,-0.85 1.7,0.9 3.95,0.9 1.4,0 2.85,-0.45 1.5,-0.5 2.7,-1.5 1.25,-1.05 2.05,-2.6 0.8,-1.6 0.8,-3.8 0.05,-1.95 -0.8,-3.65 -0.85,-1.75 -2.4,-2.9 z m -2.8,6.2 q 0,1.65 -0.55,2.85 -0.5,1.2 -1.4,2 -0.85,0.8 -2,1.2 -1.1,0.4 -2.3,0.4 -1.1,0 -2.2,-0.4 -1.1,-0.4 -2,-1.2 -0.9,-0.8 -1.5,-1.95 -0.55,-1.2 -0.55,-2.8 0,-1.2 0.35,-2.35 0.4,-1.2 1.2,-2.1 0.8,-0.95 1.95,-1.5 1.15,-0.6 2.75,-0.6 1.65,0 2.8,0.65 1.2,0.6 1.95,1.55 0.8,0.95 1.15,2.1 0.35,1.1 0.35,2.15 z"
         style="fill:#ffb400;fill-opacity:1"
         id="path4550" />
      <path
         d="m 460.19089,238.29108 q -0.05,-0.1 -0.4,-0.85 -0.3,-0.75 -0.7,-1.95 -0.4,-1.2 -0.4,-2.15 v -8.7 q 0,-2.5 -0.55,-4.25 -0.55,-1.8 -1.4,-3 -0.85,-1.25 -1.9,-1.95 -1.05,-0.75 -2.1,-1.1 -1.05,-0.4 -1.95,-0.5 -0.9,-0.15 -1.45,-0.15 -1.65,0 -3.1,0.45 -1.45,0.4 -2.65,1.15 -1.15,0.75 -2.05,1.75 -0.9,0.95 -1.45,2.05 h -0.1 l -0.2,-4.8 h -2.3 q 0.1,1.45 0.15,2.9 0.05,1.45 0.05,2.9 v 18.2 h 2.45 v -14.65 q 0,-0.55 0.1,-1.15 0.15,-0.6 0.3,-1 0.4,-1.15 1.2,-2.15 0.8,-1.05 1.85,-1.85 1.05,-0.8 2.35,-1.25 1.3,-0.45 2.75,-0.45 2.05,0 3.5,0.75 1.45,0.7 2.35,1.95 0.9,1.2 1.3,2.8 0.4,1.6 0.4,3.35 v 8.7 q 0,1.65 0.4,3.1 0.4,1.4 0.7,2.05 0.35,0.7 0.4,0.8 z"
         style="fill:#ffb400;fill-opacity:1"
         id="path4552" />
    </g>
    <g
       transform="translate(154.54636,191.89108)"
       style="font-style:normal;font-weight:normal;font-size:40px;line-height:1.25;font-family:sans-serif;letter-spacing:0px;word-spacing:0px;fill:#000000;fill-opacity:1;stroke:none"
       id="flowRoot5097" />
  </g>
</svg>
