<?xml version="1.0" encoding="UTF-8" standalone="no"?>
<!-- Created with Inkscape (http://www.inkscape.org/) -->

<svg
   xmlns:dc="http://purl.org/dc/elements/1.1/"
   xmlns:cc="http://creativecommons.org/ns#"
   xmlns:rdf="http://www.w3.org/1999/02/22-rdf-syntax-ns#"
   xmlns:svg="http://www.w3.org/2000/svg"
   xmlns="http://www.w3.org/2000/svg"
   xmlns:sodipodi="http://sodipodi.sourceforge.net/DTD/sodipodi-0.dtd"
   xmlns:inkscape="http://www.inkscape.org/namespaces/inkscape"
   width="315.64453"
   height="70.456108"
   id="svg3072"
   version="1.1"
   inkscape:version="0.92.4 (5da689c313, 2019-01-14)"
   sodipodi:docname="hackeddesign_with_slogan_max.svg"
   inkscape:export-filename="C:\Dropbox\workspace\hackeddesign\website\assets\images\hackeddesign_icon.png"
   inkscape:export-xdpi="384"
   inkscape:export-ydpi="384">
  <defs
     id="defs3074" />
  <sodipodi:namedview
     id="base"
     pagecolor="#ffffff"
     bordercolor="#666666"
     borderopacity="1.0"
     inkscape:pageopacity="0.0"
     inkscape:pageshadow="2"
     inkscape:zoom="1.63"
     inkscape:cx="158.53226"
     inkscape:cy="31.403402"
     inkscape:current-layer="layer1"
     inkscape:document-units="px"
     showgrid="false"
     inkscape:window-width="1920"
     inkscape:window-height="1017"
     inkscape:window-x="1912"
     inkscape:window-y="414"
     inkscape:window-maximized="1"
     fit-margin-top="10"
     fit-margin-left="10"
     fit-margin-right="10"
     fit-margin-bottom="10" />
  <metadata
     id="metadata3077">
    <rdf:RDF>
      <cc:Work
         rdf:about="">
        <dc:format>image/svg+xml</dc:format>
        <dc:type
           rdf:resource="http://purl.org/dc/dcmitype/StillImage" />
        <dc:title></dc:title>
      </cc:Work>
    </rdf:RDF>
  </metadata>
  <g
     id="layer1"
     inkscape:label="Layer 1"
     inkscape:groupmode="layer"
     transform="translate(-154.54636,-191.89108)">
    <g
       aria-label="be a little creative"
       style="font-style:normal;font-variant:normal;font-weight:300;font-stretch:normal;font-size:16px;line-height:1.25;font-family:Santana;-inkscape-font-specification:'Santana, Light';font-variant-ligatures:normal;font-variant-caps:normal;font-variant-numeric:normal;font-feature-settings:normal;text-align:start;letter-spacing:1px;word-spacing:0px;writing-mode:lr-tb;text-anchor:start;fill:#000000;fill-opacity:1;stroke:none"
       id="text4521">
      <path
         d="m 299.30967,245.61697 q 0,-0.8 -0.272,-1.504 -0.256,-0.72 -0.736,-1.248 -0.48,-0.544 -1.168,-0.848 -0.672,-0.32 -1.52,-0.32 -1.2,0 -2,0.512 -0.784,0.496 -1.2,1.264 h -0.032 v -5.36 h -0.784 v 9.6 q 0,0.464 -0.016,0.928 -0.016,0.464 -0.048,0.928 h 0.72 l 0.048,-1.488 h 0.032 q 0.56,0.912 1.344,1.296 0.8,0.384 1.808,0.384 0.72,0 1.392,-0.256 0.688,-0.272 1.232,-0.784 0.544,-0.528 0.864,-1.296 0.336,-0.784 0.336,-1.808 z m -0.784,0.032 q 0,0.784 -0.224,1.424 -0.224,0.64 -0.64,1.104 -0.4,0.448 -0.992,0.704 -0.576,0.24 -1.312,0.24 -0.56,0 -1.04,-0.16 -0.464,-0.176 -0.848,-0.448 -0.368,-0.272 -0.64,-0.64 -0.256,-0.368 -0.368,-0.768 -0.08,-0.32 -0.08,-0.592 v -1.328 q 0,-0.224 0.032,-0.384 0.048,-0.176 0.096,-0.32 0.16,-0.528 0.464,-0.928 0.304,-0.416 0.688,-0.672 0.4,-0.272 0.848,-0.4 0.464,-0.144 0.944,-0.144 0.72,0 1.28,0.272 0.576,0.256 0.976,0.72 0.4,0.448 0.608,1.056 0.208,0.592 0.208,1.264 z"
         style="font-style:normal;font-variant:normal;font-weight:300;font-stretch:normal;font-size:16px;font-family:Santana;-inkscape-font-specification:'Santana, Light';font-variant-ligatures:normal;font-variant-caps:normal;font-variant-numeric:normal;font-feature-settings:normal;text-align:start;letter-spacing:0.25px;writing-mode:lr-tb;text-anchor:start;fill:#363636;fill-opacity:1"
         id="path822" />
      <path
         d="m 308.12417,245.24897 q 0,-0.384 -0.128,-0.976 -0.112,-0.608 -0.48,-1.184 -0.352,-0.576 -1.008,-0.976 -0.656,-0.416 -1.728,-0.416 -0.816,0 -1.52,0.304 -0.704,0.288 -1.216,0.832 -0.512,0.544 -0.816,1.328 -0.288,0.784 -0.288,1.76 0,0.832 0.272,1.536 0.288,0.704 0.8,1.216 0.512,0.512 1.232,0.8 0.736,0.288 1.632,0.288 0.288,0 0.544,-0.016 0.272,-0.016 0.496,-0.048 l -0.064,-0.656 q -0.384,0.048 -0.896,0.048 -0.688,0 -1.28,-0.208 -0.592,-0.208 -1.04,-0.624 -0.432,-0.432 -0.688,-1.056 -0.24,-0.624 -0.24,-1.472 h 6.384 q 0.032,-0.096 0.032,-0.192 0,-0.112 0,-0.288 z m -0.816,-0.144 h -5.552 q 0.064,-0.432 0.256,-0.912 0.192,-0.496 0.528,-0.896 0.352,-0.416 0.88,-0.688 0.528,-0.272 1.264,-0.272 0.864,0 1.376,0.32 0.528,0.32 0.8,0.768 0.288,0.448 0.368,0.912 0.08,0.464 0.08,0.768 z"
         style="font-style:normal;font-variant:normal;font-weight:300;font-stretch:normal;font-size:16px;font-family:Santana;-inkscape-font-specification:'Santana, Light';font-variant-ligatures:normal;font-variant-caps:normal;font-variant-numeric:normal;font-feature-settings:normal;text-align:start;letter-spacing:0.25px;writing-mode:lr-tb;text-anchor:start;fill:#363636;fill-opacity:1"
         id="path824" />
      <path
         d="m 320.13367,249.56897 q -0.08,-0.464 -0.192,-0.928 -0.096,-0.464 -0.096,-0.928 v -2.784 q 0,-0.448 -0.096,-1.008 -0.08,-0.576 -0.384,-1.056 -0.288,-0.496 -0.864,-0.832 -0.576,-0.336 -1.552,-0.336 -0.32,0 -0.656,0.048 0,0 0.016,0.144 0.032,0.128 0.08,0.496 0.128,-0.016 0.24,-0.016 0.128,-0.016 0.256,-0.016 0.768,0 1.2,0.272 0.432,0.272 0.64,0.656 0.224,0.368 0.272,0.768 0.064,0.384 0.064,0.592 v 0.176 q -2.688,-0.032 -3.952,0.752 -1.248,0.768 -1.248,2.08 0,0.432 0.192,0.88 0.208,0.448 0.656,0.768 0.224,0.16 0.496,0.272 0.272,0.112 0.608,0.16 h 0.032 q 0.112,0.016 0.224,0.016 0.112,0.016 0.24,0.016 0.528,0 0.976,-0.128 0.448,-0.128 0.8,-0.336 0.352,-0.208 0.608,-0.448 0.256,-0.24 0.4,-0.464 h 0.032 l 0.288,1.344 z m -1.072,-2.464 q 0,0.208 -0.096,0.448 -0.112,0.256 -0.32,0.544 -0.208,0.272 -0.528,0.496 -0.32,0.224 -0.752,0.384 -0.432,0.144 -0.992,0.144 -0.672,0 -1.184,-0.4 -0.496,-0.4 -0.496,-1.216 0,-0.672 0.4,-1.072 0.4,-0.416 1.024,-0.624 0.624,-0.224 1.392,-0.288 0.784,-0.064 1.552,-0.048 z"
         style="font-style:normal;font-variant:normal;font-weight:300;font-stretch:normal;font-size:16px;font-family:Santana;-inkscape-font-specification:'Santana, Light';font-variant-ligatures:normal;font-variant-caps:normal;font-variant-numeric:normal;font-feature-settings:normal;text-align:start;letter-spacing:0.25px;writing-mode:lr-tb;text-anchor:start;fill:#363636;fill-opacity:1"
         id="path826" />
      <path
         d="m 329.75892,249.02497 q -0.288,0 -0.736,-0.16 -0.432,-0.16 -0.72,-0.464 -0.176,-0.176 -0.304,-0.4 -0.112,-0.24 -0.192,-0.592 -0.064,-0.368 -0.112,-0.912 -0.032,-0.544 -0.032,-1.36 v -7.024 h -0.784 v 7.6 q 0,1.008 0.112,1.824 0.128,0.8 0.672,1.376 0.224,0.24 0.512,0.4 0.304,0.16 0.592,0.256 0.288,0.08 0.528,0.112 0.24,0.048 0.384,0.048 z"
         style="font-style:normal;font-variant:normal;font-weight:300;font-stretch:normal;font-size:16px;font-family:Santana;-inkscape-font-specification:'Santana, Light';font-variant-ligatures:normal;font-variant-caps:normal;font-variant-numeric:normal;font-feature-settings:normal;text-align:start;letter-spacing:0.25px;writing-mode:lr-tb;text-anchor:start;fill:#363636;fill-opacity:1"
         id="path828" />
      <path
         d="m 332.26267,239.45697 q 0,-0.272 -0.192,-0.48 -0.176,-0.208 -0.448,-0.208 -0.272,0 -0.464,0.208 -0.192,0.208 -0.192,0.48 0,0.272 0.176,0.48 0.176,0.208 0.464,0.208 0.304,0 0.48,-0.208 0.176,-0.208 0.176,-0.48 z m -0.256,10.112 v -7.68 h -0.784 v 7.68 z"
         style="font-style:normal;font-variant:normal;font-weight:300;font-stretch:normal;font-size:16px;font-family:Santana;-inkscape-font-specification:'Santana, Light';font-variant-ligatures:normal;font-variant-caps:normal;font-variant-numeric:normal;font-feature-settings:normal;text-align:start;letter-spacing:0.25px;writing-mode:lr-tb;text-anchor:start;fill:#363636;fill-opacity:1"
         id="path830" />
      <path
         d="m 338.60242,241.88897 h -2.432 v -1.696 l -0.784,0.24 v 1.456 h -1.408 l -0.16,0.624 h 0.992 0.576 v 4.816 q 0,0.544 0.112,1.04 0.112,0.496 0.4,0.816 0.48,0.576 1.424,0.576 0.384,0 0.672,-0.064 0.304,-0.064 0.512,-0.144 l -0.096,-0.608 q -0.176,0.064 -0.416,0.112 -0.24,0.032 -0.592,0.032 -0.704,0 -0.976,-0.48 -0.256,-0.48 -0.256,-1.184 v -4.912 h 2.272 z"
         style="font-style:normal;font-variant:normal;font-weight:300;font-stretch:normal;font-size:16px;font-family:Santana;-inkscape-font-specification:'Santana, Light';font-variant-ligatures:normal;font-variant-caps:normal;font-variant-numeric:normal;font-feature-settings:normal;text-align:start;letter-spacing:0.25px;writing-mode:lr-tb;text-anchor:start;fill:#363636;fill-opacity:1"
         id="path832" />
      <path
         d="m 344.28992,241.88897 h -2.432 v -1.696 l -0.784,0.24 v 1.456 h -1.408 l -0.16,0.624 h 0.992 0.576 v 4.816 q 0,0.544 0.112,1.04 0.112,0.496 0.4,0.816 0.48,0.576 1.424,0.576 0.384,0 0.672,-0.064 0.304,-0.064 0.512,-0.144 l -0.096,-0.608 q -0.176,0.064 -0.416,0.112 -0.24,0.032 -0.592,0.032 -0.704,0 -0.976,-0.48 -0.256,-0.48 -0.256,-1.184 v -4.912 h 2.272 z"
         style="font-style:normal;font-variant:normal;font-weight:300;font-stretch:normal;font-size:16px;font-family:Santana;-inkscape-font-specification:'Santana, Light';font-variant-ligatures:normal;font-variant-caps:normal;font-variant-numeric:normal;font-feature-settings:normal;text-align:start;letter-spacing:0.25px;writing-mode:lr-tb;text-anchor:start;fill:#363636;fill-opacity:1"
         id="path834" />
      <path
         d="m 349.32142,249.02497 q -0.288,0 -0.736,-0.16 -0.432,-0.16 -0.72,-0.464 -0.176,-0.176 -0.304,-0.4 -0.112,-0.24 -0.192,-0.592 -0.064,-0.368 -0.112,-0.912 -0.032,-0.544 -0.032,-1.36 v -7.024 h -0.784 v 7.6 q 0,1.008 0.112,1.824 0.128,0.8 0.672,1.376 0.224,0.24 0.512,0.4 0.304,0.16 0.592,0.256 0.288,0.08 0.528,0.112 0.24,0.048 0.384,0.048 z"
         style="font-style:normal;font-variant:normal;font-weight:300;font-stretch:normal;font-size:16px;font-family:Santana;-inkscape-font-specification:'Santana, Light';font-variant-ligatures:normal;font-variant-caps:normal;font-variant-numeric:normal;font-feature-settings:normal;text-align:start;letter-spacing:0.25px;writing-mode:lr-tb;text-anchor:start;fill:#363636;fill-opacity:1"
         id="path836" />
      <path
         d="m 357.24917,245.24897 q 0,-0.384 -0.128,-0.976 -0.112,-0.608 -0.48,-1.184 -0.352,-0.576 -1.008,-0.976 -0.656,-0.416 -1.728,-0.416 -0.816,0 -1.52,0.304 -0.704,0.288 -1.216,0.832 -0.512,0.544 -0.816,1.328 -0.288,0.784 -0.288,1.76 0,0.832 0.272,1.536 0.288,0.704 0.8,1.216 0.512,0.512 1.232,0.8 0.736,0.288 1.632,0.288 0.288,0 0.544,-0.016 0.272,-0.016 0.496,-0.048 l -0.064,-0.656 q -0.384,0.048 -0.896,0.048 -0.688,0 -1.28,-0.208 -0.592,-0.208 -1.04,-0.624 -0.432,-0.432 -0.688,-1.056 -0.24,-0.624 -0.24,-1.472 h 6.384 q 0.032,-0.096 0.032,-0.192 0,-0.112 0,-0.288 z m -0.816,-0.144 h -5.552 q 0.064,-0.432 0.256,-0.912 0.192,-0.496 0.528,-0.896 0.352,-0.416 0.88,-0.688 0.528,-0.272 1.264,-0.272 0.864,0 1.376,0.32 0.528,0.32 0.8,0.768 0.288,0.448 0.368,0.912 0.08,0.464 0.08,0.768 z"
         style="font-style:normal;font-variant:normal;font-weight:300;font-stretch:normal;font-size:16px;font-family:Santana;-inkscape-font-specification:'Santana, Light';font-variant-ligatures:normal;font-variant-caps:normal;font-variant-numeric:normal;font-feature-settings:normal;text-align:start;letter-spacing:0.25px;writing-mode:lr-tb;text-anchor:start;fill:#363636;fill-opacity:1"
         id="path838" />
      <path
         d="m 369.70667,242.24097 q -0.24,-0.176 -0.864,-0.352 -0.608,-0.192 -1.472,-0.192 -0.928,0 -1.728,0.288 -0.8,0.288 -1.392,0.832 -0.576,0.528 -0.912,1.296 -0.336,0.768 -0.336,1.728 0,0.832 0.288,1.552 0.288,0.72 0.816,1.248 0.544,0.528 1.296,0.832 0.752,0.288 1.664,0.288 0.992,0 1.648,-0.208 0.672,-0.224 0.928,-0.352 l -0.224,-0.624 q -0.336,0.144 -0.88,0.336 -0.528,0.176 -1.36,0.176 -0.736,0 -1.36,-0.24 -0.608,-0.24 -1.072,-0.672 -0.448,-0.448 -0.704,-1.056 -0.256,-0.624 -0.256,-1.376 0,-0.704 0.224,-1.312 0.24,-0.624 0.672,-1.072 0.448,-0.464 1.104,-0.72 0.656,-0.272 1.52,-0.272 0.752,0 1.264,0.16 0.512,0.16 0.848,0.352 z"
         style="font-style:normal;font-variant:normal;font-weight:300;font-stretch:normal;font-size:16px;font-family:Santana;-inkscape-font-specification:'Santana, Light';font-variant-ligatures:normal;font-variant-caps:normal;font-variant-numeric:normal;font-feature-settings:normal;text-align:start;letter-spacing:0.25px;writing-mode:lr-tb;text-anchor:start;fill:#363636;fill-opacity:1"
         id="path840" />
      <path
         d="m 375.39742,242.46497 v -0.72 q -0.176,-0.048 -0.368,-0.048 -0.864,0 -1.472,0.528 -0.592,0.512 -0.88,1.328 h -0.048 l -0.032,-1.664 h -0.72 q 0.032,0.624 0.048,1.248 0.016,0.608 0.016,1.232 v 5.2 h 0.784 v -4.16 q 0,-0.384 0.08,-0.752 0.192,-1.008 0.752,-1.616 0.576,-0.608 1.392,-0.608 0.128,0 0.224,0 0.112,0 0.224,0.032 z"
         style="font-style:normal;font-variant:normal;font-weight:300;font-stretch:normal;font-size:16px;font-family:Santana;-inkscape-font-specification:'Santana, Light';font-variant-ligatures:normal;font-variant-caps:normal;font-variant-numeric:normal;font-feature-settings:normal;text-align:start;letter-spacing:0.25px;writing-mode:lr-tb;text-anchor:start;fill:#363636;fill-opacity:1"
         id="path842" />
      <path
         d="m 383.10067,245.24897 q 0,-0.384 -0.128,-0.976 -0.112,-0.608 -0.48,-1.184 -0.352,-0.576 -1.008,-0.976 -0.656,-0.416 -1.728,-0.416 -0.816,0 -1.52,0.304 -0.704,0.288 -1.216,0.832 -0.512,0.544 -0.816,1.328 -0.288,0.784 -0.288,1.76 0,0.832 0.272,1.536 0.288,0.704 0.8,1.216 0.512,0.512 1.232,0.8 0.736,0.288 1.632,0.288 0.288,0 0.544,-0.016 0.272,-0.016 0.496,-0.048 l -0.064,-0.656 q -0.384,0.048 -0.896,0.048 -0.688,0 -1.28,-0.208 -0.592,-0.208 -1.04,-0.624 -0.432,-0.432 -0.688,-1.056 -0.24,-0.624 -0.24,-1.472 h 6.384 q 0.032,-0.096 0.032,-0.192 0,-0.112 0,-0.288 z m -0.816,-0.144 h -5.552 q 0.064,-0.432 0.256,-0.912 0.192,-0.496 0.528,-0.896 0.352,-0.416 0.88,-0.688 0.528,-0.272 1.264,-0.272 0.864,0 1.376,0.32 0.528,0.32 0.8,0.768 0.288,0.448 0.368,0.912 0.08,0.464 0.08,0.768 z"
         style="font-style:normal;font-variant:normal;font-weight:300;font-stretch:normal;font-size:16px;font-family:Santana;-inkscape-font-specification:'Santana, Light';font-variant-ligatures:normal;font-variant-caps:normal;font-variant-numeric:normal;font-feature-settings:normal;text-align:start;letter-spacing:0.25px;writing-mode:lr-tb;text-anchor:start;fill:#363636;fill-opacity:1"
         id="path844" />
      <path
         d="m 391.00867,249.56897 q -0.08,-0.464 -0.192,-0.928 -0.096,-0.464 -0.096,-0.928 v -2.784 q 0,-0.448 -0.096,-1.008 -0.08,-0.576 -0.384,-1.056 -0.288,-0.496 -0.864,-0.832 -0.576,-0.336 -1.552,-0.336 -0.32,0 -0.656,0.048 0,0 0.016,0.144 0.032,0.128 0.08,0.496 0.128,-0.016 0.24,-0.016 0.128,-0.016 0.256,-0.016 0.768,0 1.2,0.272 0.432,0.272 0.64,0.656 0.224,0.368 0.272,0.768 0.064,0.384 0.064,0.592 v 0.176 q -2.688,-0.032 -3.952,0.752 -1.248,0.768 -1.248,2.08 0,0.432 0.192,0.88 0.208,0.448 0.656,0.768 0.224,0.16 0.496,0.272 0.272,0.112 0.608,0.16 h 0.032 q 0.112,0.016 0.224,0.016 0.112,0.016 0.24,0.016 0.528,0 0.976,-0.128 0.448,-0.128 0.8,-0.336 0.352,-0.208 0.608,-0.448 0.256,-0.24 0.4,-0.464 h 0.032 l 0.288,1.344 z m -1.072,-2.464 q 0,0.208 -0.096,0.448 -0.112,0.256 -0.32,0.544 -0.208,0.272 -0.528,0.496 -0.32,0.224 -0.752,0.384 -0.432,0.144 -0.992,0.144 -0.672,0 -1.184,-0.4 -0.496,-0.4 -0.496,-1.216 0,-0.672 0.4,-1.072 0.4,-0.416 1.024,-0.624 0.624,-0.224 1.392,-0.288 0.784,-0.064 1.552,-0.048 z"
         style="font-style:normal;font-variant:normal;font-weight:300;font-stretch:normal;font-size:16px;font-family:Santana;-inkscape-font-specification:'Santana, Light';font-variant-ligatures:normal;font-variant-caps:normal;font-variant-numeric:normal;font-feature-settings:normal;text-align:start;letter-spacing:0.25px;writing-mode:lr-tb;text-anchor:start;fill:#363636;fill-opacity:1"
         id="path846" />
      <path
         d="m 397.19617,241.88897 h -2.432 v -1.696 l -0.784,0.24 v 1.456 h -1.408 l -0.16,0.624 h 0.992 0.576 v 4.816 q 0,0.544 0.112,1.04 0.112,0.496 0.4,0.816 0.48,0.576 1.424,0.576 0.384,0 0.672,-0.064 0.304,-0.064 0.512,-0.144 l -0.096,-0.608 q -0.176,0.064 -0.416,0.112 -0.24,0.032 -0.592,0.032 -0.704,0 -0.976,-0.48 -0.256,-0.48 -0.256,-1.184 v -4.912 h 2.272 z"
         style="font-style:normal;font-variant:normal;font-weight:300;font-stretch:normal;font-size:16px;font-family:Santana;-inkscape-font-specification:'Santana, Light';font-variant-ligatures:normal;font-variant-caps:normal;font-variant-numeric:normal;font-feature-settings:normal;text-align:start;letter-spacing:0.25px;writing-mode:lr-tb;text-anchor:start;fill:#363636;fill-opacity:1"
         id="path848" />
      <path
         d="m 400.38767,239.45697 q 0,-0.272 -0.192,-0.48 -0.176,-0.208 -0.448,-0.208 -0.272,0 -0.464,0.208 -0.192,0.208 -0.192,0.48 0,0.272 0.176,0.48 0.176,0.208 0.464,0.208 0.304,0 0.48,-0.208 0.176,-0.208 0.176,-0.48 z m -0.256,10.112 v -7.68 h -0.784 v 7.68 z"
         style="font-style:normal;font-variant:normal;font-weight:300;font-stretch:normal;font-size:16px;font-family:Santana;-inkscape-font-specification:'Santana, Light';font-variant-ligatures:normal;font-variant-caps:normal;font-variant-numeric:normal;font-feature-settings:normal;text-align:start;letter-spacing:0.25px;writing-mode:lr-tb;text-anchor:start;fill:#363636;fill-opacity:1"
         id="path850" />
      <path
         d="m 409.57542,241.88897 h -0.832 l -2.048,4.736 q -0.272,0.608 -0.512,1.136 -0.224,0.528 -0.416,1.04 h -0.032 q -0.176,-0.512 -0.4,-1.008 -0.208,-0.512 -0.48,-1.168 l -2,-4.736 h -0.848 l 3.36,7.68 h 0.704 z"
         style="font-style:normal;font-variant:normal;font-weight:300;font-stretch:normal;font-size:16px;font-family:Santana;-inkscape-font-specification:'Santana, Light';font-variant-ligatures:normal;font-variant-caps:normal;font-variant-numeric:normal;font-feature-settings:normal;text-align:start;letter-spacing:0.25px;writing-mode:lr-tb;text-anchor:start;fill:#363636;fill-opacity:1"
         id="path852" />
      <path
         d="m 417.84292,245.24897 q 0,-0.384 -0.128,-0.976 -0.112,-0.608 -0.48,-1.184 -0.352,-0.576 -1.008,-0.976 -0.656,-0.416 -1.728,-0.416 -0.816,0 -1.52,0.304 -0.704,0.288 -1.216,0.832 -0.512,0.544 -0.816,1.328 -0.288,0.784 -0.288,1.76 0,0.832 0.272,1.536 0.288,0.704 0.8,1.216 0.512,0.512 1.232,0.8 0.736,0.288 1.632,0.288 0.288,0 0.544,-0.016 0.272,-0.016 0.496,-0.048 l -0.064,-0.656 q -0.384,0.048 -0.896,0.048 -0.688,0 -1.28,-0.208 -0.592,-0.208 -1.04,-0.624 -0.432,-0.432 -0.688,-1.056 -0.24,-0.624 -0.24,-1.472 h 6.384 q 0.032,-0.096 0.032,-0.192 0,-0.112 0,-0.288 z m -0.816,-0.144 h -5.552 q 0.064,-0.432 0.256,-0.912 0.192,-0.496 0.528,-0.896 0.352,-0.416 0.88,-0.688 0.528,-0.272 1.264,-0.272 0.864,0 1.376,0.32 0.528,0.32 0.8,0.768 0.288,0.448 0.368,0.912 0.08,0.464 0.08,0.768 z"
         style="font-style:normal;font-variant:normal;font-weight:300;font-stretch:normal;font-size:16px;font-family:Santana;-inkscape-font-specification:'Santana, Light';font-variant-ligatures:normal;font-variant-caps:normal;font-variant-numeric:normal;font-feature-settings:normal;text-align:start;letter-spacing:0.25px;writing-mode:lr-tb;text-anchor:start;fill:#363636;fill-opacity:1"
         id="path854" />
    </g>
    <path
       inkscape:connector-curvature="0"
       id="path857"
       style="font-style:normal;font-variant:normal;font-weight:300;font-stretch:normal;line-height:0%;font-family:Santana;-inkscape-font-specification:'Santana Light';letter-spacing:0px;word-spacing:0px;fill:#0062a0;fill-opacity:1;stroke:none"
       d="m 187.04636,238.29108 q -0.05,-0.1 -0.4,-0.85 -0.3,-0.75 -0.7,-1.95 -0.4,-1.2 -0.4,-2.15 v -8.75 q 0,-2.45 -0.55,-4.2 -0.5,-1.8 -1.35,-3 -0.85,-1.25 -1.9,-1.95 -1.05,-0.75 -2.1,-1.1 -1.05,-0.4 -2,-0.5 -0.9,-0.15 -1.45,-0.15 -1.45,0 -2.85,0.45 -1.4,0.4 -2.55,1.1 -1.25,0.7 -2.2,1.75 -0.95,1 -1.5,2.15 h -0.1 v -16.65 h -2.45 v 35.8 h 2.45 v -14.25 q 0,-1.55 0.4,-2.55 0.45,-1.1 1.2,-2.1 0.8,-1.05 1.85,-1.8 1.1,-0.8 2.35,-1.25 1.3,-0.5 2.75,-0.5 1.9,0 3.25,0.65 1.4,0.6 2.3,1.65 1.05,1.25 1.5,2.95 0.5,1.7 0.5,3.6 v 8.65 q 0,1.2 0.2,2.3 0.25,1.05 0.55,1.9 0.3,0.8 0.5,1.25 0.25,0.5 0.25,0.5 z" />
    <path
       inkscape:connector-curvature="0"
       id="path859"
       style="font-style:normal;font-variant:normal;font-weight:300;font-stretch:normal;line-height:0%;font-family:Santana;-inkscape-font-specification:'Santana Light';letter-spacing:0px;word-spacing:0px;fill:#0062a0;fill-opacity:1;stroke:none"
       d="m 211.43621,238.29108 q -0.25,-1.45 -0.6,-2.9 -0.3,-1.45 -0.3,-2.9 v -8.7 q 0,-1.4 -0.3,-3.15 -0.25,-1.8 -1.2,-3.3 -0.9,-1.55 -2.7,-2.6 -1.8,-1.05 -4.85,-1.05 -1,0 -2.05,0.15 0,0 0.05,0.45 0.1,0.4 0.25,1.55 0.4,-0.05 0.75,-0.05 0.4,-0.05 0.8,-0.05 2.4,0 3.75,0.85 1.35,0.85 2,2.05 0.7,1.15 0.85,2.4 0.2,1.2 0.2,1.85 v 0.55 q -8.4,-0.1 -12.35,2.35 -3.9,2.4 -3.9,6.5 0,1.35 0.6,2.75 0.65,1.4 2.05,2.4 0.7,0.5 1.55,0.85 0.85,0.35 1.9,0.5 h 0.1 q 0.35,0.05 0.7,0.05 0.35,0.05 0.75,0.05 1.65,0 3.05,-0.4 1.4,-0.4 2.5,-1.05 1.1,-0.65 1.9,-1.4 0.8,-0.75 1.25,-1.45 h 0.1 l 0.9,4.2 z m -3.35,-7.7 q 0,0.65 -0.3,1.4 -0.35,0.8 -1,1.7 -0.65,0.85 -1.65,1.55 -1,0.7 -2.35,1.2 -1.35,0.45 -3.1,0.45 -2.1,0 -3.7,-1.25 -1.55,-1.25 -1.55,-3.8 0,-2.1 1.25,-3.35 1.25,-1.3 3.2,-1.95 1.95,-0.7 4.35,-0.9 2.45,-0.2 4.85,-0.15 z" />
    <path
       inkscape:connector-curvature="0"
       id="path861"
       style="font-style:normal;font-variant:normal;font-weight:300;font-stretch:normal;line-height:0%;font-family:Santana;-inkscape-font-specification:'Santana Light';letter-spacing:0px;word-spacing:0px;fill:#0062a0;fill-opacity:1;stroke:none"
       d="m 237.64089,215.39108 q -0.75,-0.55 -2.7,-1.1 -1.9,-0.6 -4.6,-0.6 -2.9,0 -5.4,0.9 -2.5,0.9 -4.35,2.6 -1.8,1.65 -2.85,4.05 -1.05,2.4 -1.05,5.4 0,2.6 0.9,4.85 0.9,2.25 2.55,3.9 1.7,1.65 4.05,2.6 2.35,0.9 5.2,0.9 3.1,0 5.15,-0.65 2.1,-0.7 2.9,-1.1 l -0.7,-1.95 q -1.05,0.45 -2.75,1.05 -1.65,0.55 -4.25,0.55 -2.3,0 -4.25,-0.75 -1.9,-0.75 -3.35,-2.1 -1.4,-1.4 -2.2,-3.3 -0.8,-1.95 -0.8,-4.3 0,-2.2 0.7,-4.1 0.75,-1.95 2.1,-3.35 1.4,-1.45 3.45,-2.25 2.05,-0.85 4.75,-0.85 2.35,0 3.95,0.5 1.6,0.5 2.65,1.1 z" />
    <path
       inkscape:connector-curvature="0"
       id="path863"
       style="font-style:normal;font-variant:normal;font-weight:300;font-stretch:normal;line-height:0%;font-family:Santana;-inkscape-font-specification:'Santana Light';letter-spacing:0px;word-spacing:0px;fill:#0062a0;fill-opacity:1;stroke:none"
       d="m 263.04324,238.29108 -12.25,-14.1 10.7,-9.9 h -3.1 l -9.35,8.8 q -0.65,0.6 -1.4,1.4 -0.75,0.8 -1.25,1.35 h -0.1 v -23.35 h -2.45 v 35.8 h 2.45 v -10.05 l 2.75,-2.65 11.45,13.7 z" />
    <path
       inkscape:connector-curvature="0"
       id="path865"
       style="font-style:normal;font-variant:normal;font-weight:300;font-stretch:normal;line-height:0%;font-family:Santana;-inkscape-font-specification:'Santana Light';letter-spacing:0px;word-spacing:0px;fill:#0062a0;fill-opacity:1;stroke:none"
       d="m 286.99246,224.79108 q 0,-1.2 -0.4,-3.05 -0.35,-1.9 -1.5,-3.7 -1.1,-1.8 -3.15,-3.05 -2.05,-1.3 -5.4,-1.3 -2.55,0 -4.75,0.95 -2.2,0.9 -3.8,2.6 -1.6,1.7 -2.55,4.15 -0.9,2.45 -0.9,5.5 0,2.6 0.85,4.8 0.9,2.2 2.5,3.8 1.6,1.6 3.85,2.5 2.3,0.9 5.1,0.9 0.9,0 1.7,-0.05 0.85,-0.05 1.55,-0.15 l -0.2,-2.05 q -1.2,0.15 -2.8,0.15 -2.15,0 -4,-0.65 -1.85,-0.65 -3.25,-1.95 -1.35,-1.35 -2.15,-3.3 -0.75,-1.95 -0.75,-4.6 h 19.95 q 0.1,-0.3 0.1,-0.6 0,-0.35 0,-0.9 z m -2.55,-0.45 h -17.35 q 0.2,-1.35 0.8,-2.85 0.6,-1.55 1.65,-2.8 1.1,-1.3 2.75,-2.15 1.65,-0.85 3.95,-0.85 2.7,0 4.3,1 1.65,1 2.5,2.4 0.9,1.4 1.15,2.85 0.25,1.45 0.25,2.4 z" />
    <path
       inkscape:connector-curvature="0"
       id="path867"
       style="font-style:normal;font-variant:normal;font-weight:300;font-stretch:normal;line-height:0%;font-family:Santana;-inkscape-font-specification:'Santana Light';letter-spacing:0px;word-spacing:0px;fill:#0062a0;fill-opacity:1;stroke:none"
       d="m 315.84792,225.64108 q 0,-2.7 -0.6,-5.1 -0.55,-2.4 -1.65,-4.6 -0.85,-1.75 -2.05,-3.35 -1.15,-1.6 -2.6,-3.05 -0.65,-0.7 -1.35,-1.3 -0.7,-0.6 -1.45,-1.15 l -1.75,-1.3 q -1.6,-1.2 -3.5,-2.15 -1.9,-1 -3.8,-1.75 l -1,2 q 1.65,0.6 3.25,1.4 1.65,0.75 2.85,1.6 l 1.85,1.25 q 2.85,1.9 4.75,4.2 1.9,2.25 3.3,4.7 l -0.1,0.15 q -2.15,-2.15 -4.2,-2.8 -2.05,-0.7 -4.2,-0.7 -2.25,0 -4.45,0.9 -2.15,0.9 -3.9,2.6 -1.7,1.65 -2.75,4.05 -1.05,2.4 -1.05,5.4 0,2.65 0.85,4.9 0.9,2.2 2.45,3.85 1.6,1.65 3.8,2.6 2.25,0.9 4.9,0.9 2.25,0 4.45,-0.75 2.2,-0.75 3.95,-2.35 1.8,-1.6 2.9,-4.1 1.1,-2.5 1.1,-6.05 z m -2.55,0.35 q 0,2.65 -0.8,4.7 -0.75,2.05 -2.1,3.45 -1.35,1.35 -3.15,2.05 -1.8,0.7 -3.9,0.7 -1.8,0 -3.5,-0.7 -1.7,-0.7 -3.05,-2 -1.3,-1.3 -2.15,-3.2 -0.8,-1.95 -0.8,-4.45 0,-1.85 0.55,-3.75 0.6,-1.95 1.8,-3.5 1.2,-1.6 3.05,-2.6 1.85,-1 4.35,-1 2.6,0 4.35,0.9 1.75,0.9 2.9,2 1.35,1.3 1.9,2.95 0.55,1.65 0.55,4.45 z" />
    <path
       inkscape:connector-curvature="0"
       id="path869"
       style="font-style:normal;font-variant:normal;font-weight:300;font-stretch:normal;font-size:50px;line-height:1.25;font-family:Santana;-inkscape-font-specification:'Santana Light';letter-spacing:0px;word-spacing:0px;fill:#000000;fill-opacity:1;stroke:none"
       d="m 325.34138,232.01709 q 0,-1 -0.6,-1.65 -0.55,-0.7 -1.5,-0.7 -0.95,0 -1.55,0.7 -0.6,0.65 -0.6,1.65 -0.05,0.9 0.55,1.6 0.6,0.7 1.55,0.7 1,0 1.55,-0.7 0.6,-0.7 0.6,-1.6 z" />
    <path
       inkscape:connector-curvature="0"
       id="path871"
       style="font-style:normal;font-variant:normal;font-weight:300;font-stretch:normal;line-height:0%;font-family:Santana;-inkscape-font-specification:'Santana Light';letter-spacing:0px;word-spacing:0px;fill:#ffb400;fill-opacity:1;stroke:none"
       d="m 353.54324,225.64108 q 0,-2.7 -0.6,-5.1 -0.55,-2.4 -1.65,-4.6 -0.85,-1.75 -2.05,-3.35 -1.15,-1.6 -2.6,-3.05 -0.65,-0.7 -1.35,-1.3 -0.7,-0.6 -1.45,-1.15 l -1.75,-1.3 q -1.6,-1.2 -3.5,-2.15 -1.9,-1 -3.8,-1.75 l -1,2 q 1.65,0.6 3.25,1.4 1.65,0.75 2.85,1.6 l 1.85,1.25 q 2.85,1.9 4.75,4.2 1.9,2.25 3.3,4.7 l -0.1,0.15 q -2.15,-2.15 -4.2,-2.8 -2.05,-0.7 -4.2,-0.7 -2.25,0 -4.45,0.9 -2.15,0.9 -3.9,2.6 -1.7,1.65 -2.75,4.05 -1.05,2.4 -1.05,5.4 0,2.65 0.85,4.9 0.9,2.2 2.45,3.85 1.6,1.65 3.8,2.6 2.25,0.9 4.9,0.9 2.25,0 4.45,-0.75 2.2,-0.75 3.95,-2.35 1.8,-1.6 2.9,-4.1 1.1,-2.5 1.1,-6.05 z m -2.55,0.35 q 0,2.65 -0.8,4.7 -0.75,2.05 -2.1,3.45 -1.35,1.35 -3.15,2.05 -1.8,0.7 -3.9,0.7 -1.8,0 -3.5,-0.7 -1.7,-0.7 -3.05,-2 -1.3,-1.3 -2.15,-3.2 -0.8,-1.95 -0.8,-4.45 0,-1.85 0.55,-3.75 0.6,-1.95 1.8,-3.5 1.2,-1.6 3.05,-2.6 1.85,-1 4.35,-1 2.6,0 4.35,0.9 1.75,0.9 2.9,2 1.35,1.3 1.9,2.95 0.55,1.65 0.55,4.45 z" />
    <path
       inkscape:connector-curvature="0"
       id="path873"
       style="font-style:normal;font-variant:normal;font-weight:300;font-stretch:normal;line-height:0%;font-family:Santana;-inkscape-font-specification:'Santana Light';letter-spacing:0px;word-spacing:0px;fill:#ffb400;fill-opacity:1;stroke:none"
       d="m 380.44949,224.79108 q 0,-1.2 -0.4,-3.05 -0.35,-1.9 -1.5,-3.7 -1.1,-1.8 -3.15,-3.05 -2.05,-1.3 -5.4,-1.3 -2.55,0 -4.75,0.95 -2.2,0.9 -3.8,2.6 -1.6,1.7 -2.55,4.15 -0.9,2.45 -0.9,5.5 0,2.6 0.85,4.8 0.9,2.2 2.5,3.8 1.6,1.6 3.85,2.5 2.3,0.9 5.1,0.9 0.9,0 1.7,-0.05 0.85,-0.05 1.55,-0.15 l -0.2,-2.05 q -1.2,0.15 -2.8,0.15 -2.15,0 -4,-0.65 -1.85,-0.65 -3.25,-1.95 -1.35,-1.35 -2.15,-3.3 -0.75,-1.95 -0.75,-4.6 h 19.95 q 0.1,-0.3 0.1,-0.6 0,-0.35 0,-0.9 z m -2.55,-0.45 h -17.35 q 0.2,-1.35 0.8,-2.85 0.6,-1.55 1.65,-2.8 1.1,-1.3 2.75,-2.15 1.65,-0.85 3.95,-0.85 2.7,0 4.3,1 1.65,1 2.5,2.4 0.9,1.4 1.15,2.85 0.25,1.45 0.25,2.4 z" />
    <path
       inkscape:connector-curvature="0"
       id="path875"
       style="font-style:normal;font-variant:normal;font-weight:300;font-stretch:normal;line-height:0%;font-family:Santana;-inkscape-font-specification:'Santana Light';letter-spacing:0px;word-spacing:0px;fill:#ffb400;fill-opacity:1;stroke:none"
       d="m 400.55496,231.99108 q 0,-2.7 -1.65,-4.25 -1.6,-1.6 -4.9,-2.75 -1.35,-0.45 -2.4,-0.9 -1,-0.45 -1.75,-1 -0.7,-0.55 -1.1,-1.3 -0.35,-0.75 -0.35,-1.75 0,-1.75 1.25,-3 1.3,-1.3 3.8,-1.3 2.1,0 3.4,0.6 1.3,0.55 1.9,0.95 l 0.95,-2 q -1.05,-0.7 -2.55,-1.15 -1.5,-0.45 -3.25,-0.45 -1.95,0 -3.45,0.55 -1.45,0.55 -2.45,1.5 -1,0.95 -1.5,2.15 -0.5,1.2 -0.5,2.45 0,4.4 6.5,6.5 2.85,0.9 4.25,2.1 1.4,1.15 1.4,3.25 0,1.85 -1.45,3.25 -1.45,1.4 -4.6,1.4 -1.8,0 -3.35,-0.55 -1.55,-0.55 -2.65,-1.25 l -0.9,2.1 q 1.35,0.8 3.05,1.25 1.75,0.5 3.65,0.5 2.05,0 3.65,-0.55 1.6,-0.5 2.7,-1.4 1.15,-0.95 1.7,-2.2 0.6,-1.3 0.6,-2.75 z" />
    <path
       inkscape:connector-curvature="0"
       id="path877"
       style="font-style:normal;font-variant:normal;font-weight:300;font-stretch:normal;line-height:0%;font-family:Santana;-inkscape-font-specification:'Santana Light';letter-spacing:0px;word-spacing:0px;fill:#ffb400;fill-opacity:1;stroke:none"
       d="m 410.76511,206.69108 q 0,-0.85 -0.6,-1.5 -0.55,-0.65 -1.4,-0.65 -0.85,0 -1.45,0.65 -0.6,0.65 -0.6,1.5 0,0.85 0.55,1.5 0.55,0.65 1.45,0.65 0.95,0 1.5,-0.65 0.55,-0.65 0.55,-1.5 z m -0.8,31.6 v -24 h -2.45 v 24 z" />
    <path
       inkscape:connector-curvature="0"
       id="path879"
       style="font-style:normal;font-variant:normal;font-weight:300;font-stretch:normal;line-height:0%;font-family:Santana;-inkscape-font-specification:'Santana Light';letter-spacing:0px;word-spacing:0px;fill:#ffb400;fill-opacity:1;stroke:none"
       d="m 432.19558,216.24108 v -2.15 l -9,0.1 h -0.1 q -1.55,0 -3.05,0.6 -1.5,0.55 -2.7,1.65 -1.15,1.1 -1.9,2.7 -0.7,1.55 -0.7,3.5 0,1.85 0.7,3.4 0.7,1.5 1.95,2.65 -0.05,0.2 -0.2,0.85 -0.15,0.6 -0.3,1.35 -0.1,0.75 -0.2,1.5 -0.05,0.75 0.05,1.1 0.25,1.25 0.7,1.85 0.5,0.6 1.25,0.9 0.8,0.3 1.9,0.55 1.15,0.2 2.8,0.7 2.85,0.9 4.25,2.05 1.4,1.2 1.4,3.3 0,1.85 -1.45,3.25 -1.45,1.4 -4.6,1.4 -1.8,0 -3.35,-0.55 -1.55,-0.55 -2.65,-1.25 l -0.9,2.1 q 1.35,0.8 3.05,1.25 1.75,0.5 3.65,0.5 2.05,0 3.65,-0.55 1.6,-0.5 2.7,-1.45 1.15,-0.9 1.7,-2.2 0.6,-1.25 0.6,-2.7 0,-2.7 -1.65,-4.3 -1.6,-1.55 -4.9,-2.7 -1.35,-0.45 -2.45,-0.65 -1.1,-0.25 -1.9,-0.5 -0.75,-0.3 -1.2,-0.8 -0.45,-0.5 -0.45,-1.5 0,-0.05 0.05,-0.5 0.1,-0.45 0.15,-1.05 0.1,-0.6 0.05,-0.85 1.7,0.9 3.95,0.9 1.4,0 2.85,-0.45 1.5,-0.5 2.7,-1.5 1.25,-1.05 2.05,-2.6 0.8,-1.6 0.8,-3.8 0.05,-1.95 -0.8,-3.65 -0.85,-1.75 -2.4,-2.9 z m -2.8,6.2 q 0,1.65 -0.55,2.85 -0.5,1.2 -1.4,2 -0.85,0.8 -2,1.2 -1.1,0.4 -2.3,0.4 -1.1,0 -2.2,-0.4 -1.1,-0.4 -2,-1.2 -0.9,-0.8 -1.5,-1.95 -0.55,-1.2 -0.55,-2.8 0,-1.2 0.35,-2.35 0.4,-1.2 1.2,-2.1 0.8,-0.95 1.95,-1.5 1.15,-0.6 2.75,-0.6 1.65,0 2.8,0.65 1.2,0.6 1.95,1.55 0.8,0.95 1.15,2.1 0.35,1.1 0.35,2.15 z" />
    <path
       inkscape:connector-curvature="0"
       id="path881"
       style="font-style:normal;font-variant:normal;font-weight:300;font-stretch:normal;line-height:0%;font-family:Santana;-inkscape-font-specification:'Santana Light';letter-spacing:0px;word-spacing:0px;fill:#ffb400;fill-opacity:1;stroke:none"
       d="m 460.19089,238.29108 q -0.05,-0.1 -0.4,-0.85 -0.3,-0.75 -0.7,-1.95 -0.4,-1.2 -0.4,-2.15 v -8.7 q 0,-2.5 -0.55,-4.25 -0.55,-1.8 -1.4,-3 -0.85,-1.25 -1.9,-1.95 -1.05,-0.75 -2.1,-1.1 -1.05,-0.4 -1.95,-0.5 -0.9,-0.15 -1.45,-0.15 -1.65,0 -3.1,0.45 -1.45,0.4 -2.65,1.15 -1.15,0.75 -2.05,1.75 -0.9,0.95 -1.45,2.05 h -0.1 l -0.2,-4.8 h -2.3 q 0.1,1.45 0.15,2.9 0.05,1.45 0.05,2.9 v 18.2 h 2.45 v -14.65 q 0,-0.55 0.1,-1.15 0.15,-0.6 0.3,-1 0.4,-1.15 1.2,-2.15 0.8,-1.05 1.85,-1.85 1.05,-0.8 2.35,-1.25 1.3,-0.45 2.75,-0.45 2.05,0 3.5,0.75 1.45,0.7 2.35,1.95 0.9,1.2 1.3,2.8 0.4,1.6 0.4,3.35 v 8.7 q 0,1.65 0.4,3.1 0.4,1.4 0.7,2.05 0.35,0.7 0.4,0.8 z" />
  </g>
</svg>
