<?xml version="1.0" encoding="UTF-8" standalone="no"?>
<!-- Created with Inkscape (http://www.inkscape.org/) -->

<svg
   xmlns:dc="http://purl.org/dc/elements/1.1/"
   xmlns:cc="http://creativecommons.org/ns#"
   xmlns:rdf="http://www.w3.org/1999/02/22-rdf-syntax-ns#"
   xmlns:svg="http://www.w3.org/2000/svg"
   xmlns="http://www.w3.org/2000/svg"
   xmlns:sodipodi="http://sodipodi.sourceforge.net/DTD/sodipodi-0.dtd"
   xmlns:inkscape="http://www.inkscape.org/namespaces/inkscape"
   width="512"
   height="512"
   id="svg3072"
   version="1.1"
   inkscape:version="0.92.4 (5da689c313, 2019-01-14)"
   sodipodi:docname="icon_dot.svg"
   inkscape:export-filename="C:\Dropbox\workspace\hackeddesign\website\assets\images\hackeddesign_with_slogan_hero_max.png"
   inkscape:export-xdpi="623.45001"
   inkscape:export-ydpi="623.45001">
  <defs
     id="defs3074" />
  <sodipodi:namedview
     id="base"
     pagecolor="#ffffff"
     bordercolor="#666666"
     borderopacity="1.0"
     inkscape:pageopacity="0.0"
     inkscape:pageshadow="2"
     inkscape:zoom="1.63"
     inkscape:cx="199.9433"
     inkscape:cy="272.5077"
     inkscape:current-layer="layer1"
     inkscape:document-units="px"
     showgrid="false"
     inkscape:window-width="1920"
     inkscape:window-height="1017"
     inkscape:window-x="-8"
     inkscape:window-y="414"
     inkscape:window-maximized="1"
     fit-margin-top="10"
     fit-margin-left="10"
     fit-margin-right="10"
     fit-margin-bottom="10" />
  <metadata
     id="metadata3077">
    <rdf:RDF>
      <cc:Work
         rdf:about="">
        <dc:format>image/svg+xml</dc:format>
        <dc:type
           rdf:resource="http://purl.org/dc/dcmitype/StillImage" />
        <dc:title></dc:title>
      </cc:Work>
    </rdf:RDF>
  </metadata>
  <g
     id="layer1"
     inkscape:label="Layer 1"
     inkscape:groupmode="layer"
     transform="translate(-154.54636,249.65281)">
    <g
       id="g818"
       transform="matrix(7.6865587,0,0,7.6865587,-2068.3348,-1687.7018)">
      <path
         d="m 315.84792,225.64108 q 0,-2.7 -0.6,-5.1 -0.55,-2.4 -1.65,-4.6 -0.85,-1.75 -2.05,-3.35 -1.15,-1.6 -2.6,-3.05 -0.65,-0.7 -1.35,-1.3 -0.7,-0.6 -1.45,-1.15 l -1.75,-1.3 q -1.6,-1.2 -3.5,-2.15 -1.9,-1 -3.8,-1.75 l -1,2 q 1.65,0.6 3.25,1.4 1.65,0.75 2.85,1.6 l 1.85,1.25 q 2.85,1.9 4.75,4.2 1.9,2.25 3.3,4.7 l -0.1,0.15 q -2.15,-2.15 -4.2,-2.8 -2.05,-0.7 -4.2,-0.7 -2.25,0 -4.45,0.9 -2.15,0.9 -3.9,2.6 -1.7,1.65 -2.75,4.05 -1.05,2.4 -1.05,5.4 0,2.65 0.85,4.9 0.9,2.2 2.45,3.85 1.6,1.65 3.8,2.6 2.25,0.9 4.9,0.9 2.25,0 4.45,-0.75 2.2,-0.75 3.95,-2.35 1.8,-1.6 2.9,-4.1 1.1,-2.5 1.1,-6.05 z m -2.55,0.35 q 0,2.65 -0.8,4.7 -0.75,2.05 -2.1,3.45 -1.35,1.35 -3.15,2.05 -1.8,0.7 -3.9,0.7 -1.8,0 -3.5,-0.7 -1.7,-0.7 -3.05,-2 -1.3,-1.3 -2.15,-3.2 -0.8,-1.95 -0.8,-4.45 0,-1.85 0.55,-3.75 0.6,-1.95 1.8,-3.5 1.2,-1.6 3.05,-2.6 1.85,-1 4.35,-1 2.6,0 4.35,0.9 1.75,0.9 2.9,2 1.35,1.3 1.9,2.95 0.55,1.65 0.55,4.45 z"
         style="font-style:normal;font-variant:normal;font-weight:300;font-stretch:normal;line-height:0%;font-family:Santana;-inkscape-font-specification:'Santana Light';letter-spacing:0px;word-spacing:0px;fill:#0062a0;fill-opacity:1;stroke:none"
         id="path867"
         inkscape:connector-curvature="0" />
      <path
         d="m 325.34138,232.01709 q 0,-1 -0.6,-1.65 -0.55,-0.7 -1.5,-0.7 -0.95,0 -1.55,0.7 -0.6,0.65 -0.6,1.65 -0.05,0.9 0.55,1.6 0.6,0.7 1.55,0.7 1,0 1.55,-0.7 0.6,-0.7 0.6,-1.6 z"
         style="font-style:normal;font-variant:normal;font-weight:300;font-stretch:normal;font-size:50px;line-height:1.25;font-family:Santana;-inkscape-font-specification:'Santana Light';letter-spacing:0px;word-spacing:0px;fill:#000000;fill-opacity:1;stroke:none"
         id="path869"
         inkscape:connector-curvature="0" />
      <path
         d="m 353.54324,225.64108 q 0,-2.7 -0.6,-5.1 -0.55,-2.4 -1.65,-4.6 -0.85,-1.75 -2.05,-3.35 -1.15,-1.6 -2.6,-3.05 -0.65,-0.7 -1.35,-1.3 -0.7,-0.6 -1.45,-1.15 l -1.75,-1.3 q -1.6,-1.2 -3.5,-2.15 -1.9,-1 -3.8,-1.75 l -1,2 q 1.65,0.6 3.25,1.4 1.65,0.75 2.85,1.6 l 1.85,1.25 q 2.85,1.9 4.75,4.2 1.9,2.25 3.3,4.7 l -0.1,0.15 q -2.15,-2.15 -4.2,-2.8 -2.05,-0.7 -4.2,-0.7 -2.25,0 -4.45,0.9 -2.15,0.9 -3.9,2.6 -1.7,1.65 -2.75,4.05 -1.05,2.4 -1.05,5.4 0,2.65 0.85,4.9 0.9,2.2 2.45,3.85 1.6,1.65 3.8,2.6 2.25,0.9 4.9,0.9 2.25,0 4.45,-0.75 2.2,-0.75 3.95,-2.35 1.8,-1.6 2.9,-4.1 1.1,-2.5 1.1,-6.05 z m -2.55,0.35 q 0,2.65 -0.8,4.7 -0.75,2.05 -2.1,3.45 -1.35,1.35 -3.15,2.05 -1.8,0.7 -3.9,0.7 -1.8,0 -3.5,-0.7 -1.7,-0.7 -3.05,-2 -1.3,-1.3 -2.15,-3.2 -0.8,-1.95 -0.8,-4.45 0,-1.85 0.55,-3.75 0.6,-1.95 1.8,-3.5 1.2,-1.6 3.05,-2.6 1.85,-1 4.35,-1 2.6,0 4.35,0.9 1.75,0.9 2.9,2 1.35,1.3 1.9,2.95 0.55,1.65 0.55,4.45 z"
         style="font-style:normal;font-variant:normal;font-weight:300;font-stretch:normal;line-height:0%;font-family:Santana;-inkscape-font-specification:'Santana Light';letter-spacing:0px;word-spacing:0px;fill:#ffb400;fill-opacity:1;stroke:none"
         id="path871"
         inkscape:connector-curvature="0" />
    </g>
  </g>
</svg>
